<svg width="65" height="65" version="1.1" xmlns="http://www.w3.org/2000/svg" desc="Created with imagetracer.js version 1.2.6" ><path fill="rgb(0,0,0)" stroke="rgb(0,0,0)" stroke-width="1" opacity="0" d="M 0 0 L 65 0 L 65 30.5 L 34.5 1 L 2 32.5 L 2 34.5 L 32 64.5 L 0 65 L 0 0 Z " /><path fill="rgb(0,0,0)" stroke="rgb(0,0,0)" stroke-width="1" opacity="0" d="M 64.5 36 L 65 65 L 36 64.5 L 64.5 36 Z " /><path fill="rgb(131,114,255)" stroke="rgb(131,114,255)" stroke-width="1" opacity="0.12549019607843137" d="M 33.5 1 L 65 31.5 L 34.5 2 L 3 32.5 L 3 34.5 L 33 64.5 L 2 34.5 L 2 32.5 L 33.5 1 Z " /><path fill="rgb(131,114,255)" stroke="rgb(131,114,255)" stroke-width="1" opacity="0.12549019607843137" d="M 64.5 35 L 35.5 65 L 64.5 35 Z " /><path fill="rgb(138,123,255)" stroke="rgb(138,123,255)" stroke-width="1" opacity="0.2549019607843137" d="M 33.5 13 L 54 32.5 L 34.5 14 L 14.5 33 L 33.5 13 Z " /><path fill="rgb(138,123,255)" stroke="rgb(138,123,255)" stroke-width="1" opacity="0.2549019607843137" d="M 14.5 34 L 34.5 53 L 54 34.5 L 33.5 54 L 14.5 34 Z " /><path fill="rgb(135,120,255)" stroke="rgb(135,120,255)" stroke-width="1" opacity="0.25098039215686274" d="M 33.5 2 L 65 32.5 L 65 34.5 L 34.5 65 L 3 34.5 L 3 32.5 L 33.5 2 Z M 34 13 L 14 33 L 14 35 L 35 54 L 54 35 L 54 33 L 34 13 Z " /><path fill="rgb(244,249,255)" stroke="rgb(244,249,255)" stroke-width="1" opacity="0.9803921568627451" d="M 33.5 14 L 54 33.5 L 33.5 53 L 14 33.5 L 33.5 14 Z M 34 20 L 20 34 L 34 47 L 48 34 L 34 20 Z " /><path fill="rgb(51,153,255)" stroke="rgb(51,153,255)" stroke-width="1" opacity="1" d="M 33.5 20 L 48 33.5 L 33.5 47 L 20 33.5 L 33.5 20 Z " /></svg>